<mxfile host="65bd71144e">
    <diagram id="j3fNbXVSSnutuGqdQ5Ld" name="Page-1">
        <mxGraphModel dx="1163" dy="722" grid="1" gridSize="10" guides="1" tooltips="1" connect="1" arrows="1" fold="1" page="1" pageScale="1" pageWidth="850" pageHeight="1100" math="0" shadow="0">
            <root>
                <mxCell id="0"/>
                <mxCell id="1" parent="0"/>
                <mxCell id="2" value="user&amp;nbsp;" style="rounded=1;whiteSpace=wrap;html=1;" parent="1" vertex="1">
                    <mxGeometry x="100" y="180" width="80" height="40" as="geometry"/>
                </mxCell>
                <mxCell id="3" value="&lt;u&gt;ID&lt;/u&gt;" style="ellipse;whiteSpace=wrap;html=1;" parent="1" vertex="1">
                    <mxGeometry x="80" y="70" width="50" height="50" as="geometry"/>
                </mxCell>
                <mxCell id="10" value="" style="shape=line;html=1;strokeWidth=3;sourcePerimeterSpacing=0;sketch=0;shadow=0;rounded=0;" parent="1" source="9" target="2" edge="1">
                    <mxGeometry relative="1" as="geometry"/>
                </mxCell>
                <mxCell id="9" value="&lt;u&gt;username&lt;/u&gt;" style="ellipse;whiteSpace=wrap;html=1;gradientColor=none;fillColor=default;" parent="1" vertex="1">
                    <mxGeometry x="140" y="70" width="70" height="50" as="geometry"/>
                </mxCell>
                <mxCell id="16" value="" style="line;strokeWidth=6;direction=south;html=1;fillColor=default;gradientColor=none;" parent="1" vertex="1">
                    <mxGeometry x="100" y="120" width="10" height="60" as="geometry"/>
                </mxCell>
                <mxCell id="17" value="" style="line;strokeWidth=6;direction=south;html=1;fillColor=default;gradientColor=none;" parent="1" vertex="1">
                    <mxGeometry x="45" y="120" width="250" height="60" as="geometry"/>
                </mxCell>
                <mxCell id="19" value="First_name" style="ellipse;whiteSpace=wrap;html=1;strokeWidth=1;fillColor=default;gradientColor=none;" parent="1" vertex="1">
                    <mxGeometry x="-25" y="140" width="70" height="40" as="geometry"/>
                </mxCell>
                <mxCell id="21" value="last_name" style="ellipse;whiteSpace=wrap;html=1;strokeWidth=1;fillColor=default;gradientColor=none;" parent="1" vertex="1">
                    <mxGeometry x="20" y="230" width="70" height="40" as="geometry"/>
                </mxCell>
                <mxCell id="22" value="" style="shape=partialRectangle;whiteSpace=wrap;html=1;bottom=0;right=0;fillColor=none;strokeWidth=1;direction=west;" parent="1" vertex="1">
                    <mxGeometry x="90" y="220" width="20" height="30" as="geometry"/>
                </mxCell>
                <mxCell id="23" value="" style="shape=partialRectangle;whiteSpace=wrap;html=1;bottom=0;right=0;fillColor=none;strokeWidth=1;direction=south;" parent="1" vertex="1">
                    <mxGeometry x="45" y="160" width="20" height="40" as="geometry"/>
                </mxCell>
                <mxCell id="24" value="" style="line;strokeWidth=1;html=1;perimeter=backbonePerimeter;points=[];outlineConnect=0;fillColor=default;gradientColor=none;" parent="1" vertex="1">
                    <mxGeometry x="65" y="185" width="40" height="30" as="geometry"/>
                </mxCell>
                <mxCell id="25" value="Trip" style="rounded=1;whiteSpace=wrap;html=1;strokeWidth=2;fillColor=default;gradientColor=none;" parent="1" vertex="1">
                    <mxGeometry x="410" y="175" width="95" height="50" as="geometry"/>
                </mxCell>
                <mxCell id="37" value="password" style="ellipse;whiteSpace=wrap;html=1;strokeWidth=1;fillColor=default;gradientColor=none;" parent="1" vertex="1">
                    <mxGeometry x="90" y="290" width="80" height="40" as="geometry"/>
                </mxCell>
                <mxCell id="39" value="" style="endArrow=none;html=1;rounded=1;shadow=0;sketch=0;sourcePerimeterSpacing=0;strokeWidth=6;entryX=0.377;entryY=1.079;entryDx=0;entryDy=0;entryPerimeter=0;" parent="1" target="2" edge="1">
                    <mxGeometry width="50" height="50" relative="1" as="geometry">
                        <mxPoint x="130" y="290" as="sourcePoint"/>
                        <mxPoint x="180" y="240" as="targetPoint"/>
                    </mxGeometry>
                </mxCell>
                <mxCell id="40" value="Has a&amp;nbsp;" style="rhombus;whiteSpace=wrap;html=1;strokeWidth=1;fillColor=default;gradientColor=none;" parent="1" vertex="1">
                    <mxGeometry x="260" y="170" width="80" height="70" as="geometry"/>
                </mxCell>
                <mxCell id="43" value="" style="endArrow=none;html=1;rounded=1;shadow=0;sketch=0;sourcePerimeterSpacing=0;strokeWidth=1;entryX=0;entryY=0.5;entryDx=0;entryDy=0;" parent="1" target="40" edge="1">
                    <mxGeometry width="50" height="50" relative="1" as="geometry">
                        <mxPoint x="180" y="205" as="sourcePoint"/>
                        <mxPoint x="230" y="155" as="targetPoint"/>
                    </mxGeometry>
                </mxCell>
                <mxCell id="45" value="" style="endArrow=none;html=1;rounded=1;shadow=0;sketch=0;sourcePerimeterSpacing=0;strokeWidth=1;" parent="1" edge="1">
                    <mxGeometry width="50" height="50" relative="1" as="geometry">
                        <mxPoint x="340" y="205" as="sourcePoint"/>
                        <mxPoint x="410" y="205" as="targetPoint"/>
                    </mxGeometry>
                </mxCell>
                <mxCell id="46" value="city" style="ellipse;whiteSpace=wrap;html=1;strokeWidth=1;fillColor=default;gradientColor=none;" parent="1" vertex="1">
                    <mxGeometry x="425" y="85" width="80" height="50" as="geometry"/>
                </mxCell>
                <mxCell id="47" value="category" style="ellipse;whiteSpace=wrap;html=1;strokeWidth=1;fillColor=default;gradientColor=none;" parent="1" vertex="1">
                    <mxGeometry x="505" y="90" width="70" height="50" as="geometry"/>
                </mxCell>
                <mxCell id="49" value="" style="endArrow=none;html=1;rounded=1;shadow=0;sketch=0;sourcePerimeterSpacing=0;strokeWidth=6;entryX=0;entryY=1;entryDx=0;entryDy=0;" parent="1" target="47" edge="1">
                    <mxGeometry width="50" height="50" relative="1" as="geometry">
                        <mxPoint x="505" y="205" as="sourcePoint"/>
                        <mxPoint x="550" y="170" as="targetPoint"/>
                    </mxGeometry>
                </mxCell>
                <mxCell id="50" value="" style="endArrow=none;html=1;rounded=1;shadow=0;sketch=0;sourcePerimeterSpacing=0;strokeWidth=6;entryX=0.429;entryY=1.04;entryDx=0;entryDy=0;entryPerimeter=0;" parent="1" target="46" edge="1">
                    <mxGeometry width="50" height="50" relative="1" as="geometry">
                        <mxPoint x="447.5" y="175" as="sourcePoint"/>
                        <mxPoint x="497.5" y="125" as="targetPoint"/>
                    </mxGeometry>
                </mxCell>
                <mxCell id="51" value="&lt;u&gt;ID&lt;/u&gt;" style="ellipse;whiteSpace=wrap;html=1;strokeWidth=1;fillColor=default;gradientColor=none;" parent="1" vertex="1">
                    <mxGeometry x="357.5" y="280" width="60" height="50" as="geometry"/>
                </mxCell>
                <mxCell id="53" value="" style="endArrow=none;html=1;rounded=1;shadow=0;sketch=0;sourcePerimeterSpacing=0;strokeWidth=6;entryX=0.5;entryY=1;entryDx=0;entryDy=0;exitX=0.5;exitY=0;exitDx=0;exitDy=0;" parent="1" source="51" target="25" edge="1">
                    <mxGeometry width="50" height="50" relative="1" as="geometry">
                        <mxPoint x="455" y="260" as="sourcePoint"/>
                        <mxPoint x="505" y="210" as="targetPoint"/>
                    </mxGeometry>
                </mxCell>
                <mxCell id="54" value="state" style="ellipse;whiteSpace=wrap;html=1;strokeWidth=1;fillColor=default;gradientColor=none;" parent="1" vertex="1">
                    <mxGeometry x="545" y="285" width="80" height="50" as="geometry"/>
                </mxCell>
                <mxCell id="55" value="" style="endArrow=none;html=1;rounded=1;shadow=0;sketch=0;sourcePerimeterSpacing=0;strokeWidth=6;exitX=0.063;exitY=0.2;exitDx=0;exitDy=0;exitPerimeter=0;" parent="1" source="54" edge="1">
                    <mxGeometry width="50" height="50" relative="1" as="geometry">
                        <mxPoint x="455" y="270" as="sourcePoint"/>
                        <mxPoint x="505" y="220" as="targetPoint"/>
                    </mxGeometry>
                </mxCell>
                <mxCell id="56" value="start_time" style="ellipse;whiteSpace=wrap;html=1;strokeWidth=1;fillColor=default;gradientColor=none;" parent="1" vertex="1">
                    <mxGeometry x="550" y="180" width="70" height="60" as="geometry"/>
                </mxCell>
                <mxCell id="57" value="" style="endArrow=none;html=1;rounded=1;shadow=0;sketch=0;sourcePerimeterSpacing=0;strokeWidth=6;entryX=0;entryY=0.5;entryDx=0;entryDy=0;" parent="1" target="56" edge="1">
                    <mxGeometry width="50" height="50" relative="1" as="geometry">
                        <mxPoint x="500" y="210" as="sourcePoint"/>
                        <mxPoint x="550" y="160" as="targetPoint"/>
                    </mxGeometry>
                </mxCell>
                <mxCell id="61" value="number_of _participants" style="ellipse;whiteSpace=wrap;html=1;strokeWidth=1;fillColor=default;gradientColor=none;" parent="1" vertex="1">
                    <mxGeometry x="440" y="290" width="80" height="50" as="geometry"/>
                </mxCell>
                <mxCell id="62" value="" style="endArrow=none;html=1;rounded=1;shadow=0;sketch=0;sourcePerimeterSpacing=0;strokeWidth=1;exitX=0.5;exitY=0;exitDx=0;exitDy=0;" parent="1" source="61" edge="1">
                    <mxGeometry width="50" height="50" relative="1" as="geometry">
                        <mxPoint x="432.5" y="275" as="sourcePoint"/>
                        <mxPoint x="482.5" y="225" as="targetPoint"/>
                    </mxGeometry>
                </mxCell>
                <mxCell id="63" value="date" style="ellipse;whiteSpace=wrap;html=1;" vertex="1" parent="1">
                    <mxGeometry x="340" y="120" width="60" height="50" as="geometry"/>
                </mxCell>
                <mxCell id="64" value="" style="endArrow=none;html=1;exitX=1;exitY=1;exitDx=0;exitDy=0;strokeWidth=6;" edge="1" parent="1" source="63">
                    <mxGeometry width="50" height="50" relative="1" as="geometry">
                        <mxPoint x="360" y="230" as="sourcePoint"/>
                        <mxPoint x="410" y="180" as="targetPoint"/>
                    </mxGeometry>
                </mxCell>
            </root>
        </mxGraphModel>
    </diagram>
</mxfile>